<svg width="23" height="23" viewBox="0 0 23 23" fill="none" xmlns="http://www.w3.org/2000/svg">
<g id="ic:baseline-language">
<path id="Vector" d="M11.4904 1.91663C6.20044 1.91663 1.91669 6.20996 1.91669 11.5C1.91669 16.79 6.20044 21.0833 11.4904 21.0833C16.79 21.0833 21.0834 16.79 21.0834 11.5C21.0834 6.20996 16.79 1.91663 11.4904 1.91663ZM18.1317 7.66663H15.3046C15.0047 6.47969 14.5605 5.33394 13.9821 4.25496C15.7302 4.85679 17.2032 6.06786 18.1317 7.66663ZM11.5 3.87163C12.2954 5.02163 12.9184 6.29621 13.3304 7.66663H9.6696C10.0817 6.29621 10.7046 5.02163 11.5 3.87163ZM4.08252 13.4166C3.92919 12.8033 3.83335 12.1612 3.83335 11.5C3.83335 10.8387 3.92919 10.1966 4.08252 9.58329H7.32169C7.24502 10.2158 7.18752 10.8483 7.18752 11.5C7.18752 12.1516 7.24502 12.7841 7.32169 13.4166H4.08252ZM4.86835 15.3333H7.69544C8.0021 16.5312 8.44294 17.6812 9.01794 18.745C7.26799 18.1464 5.79394 16.9345 4.86835 15.3333ZM7.69544 7.66663H4.86835C5.79394 6.06542 7.26799 4.8535 9.01794 4.25496C8.43951 5.33394 7.99537 6.47969 7.69544 7.66663ZM11.5 19.1283C10.7046 17.9783 10.0817 16.7037 9.6696 15.3333H13.3304C12.9184 16.7037 12.2954 17.9783 11.5 19.1283ZM13.7425 13.4166H9.25752C9.17127 12.7841 9.10419 12.1516 9.10419 11.5C9.10419 10.8483 9.17127 10.2062 9.25752 9.58329H13.7425C13.8288 10.2062 13.8959 10.8483 13.8959 11.5C13.8959 12.1516 13.8288 12.7841 13.7425 13.4166ZM13.9821 18.745C14.5571 17.6812 14.9979 16.5312 15.3046 15.3333H18.1317C17.2032 16.9321 15.7302 18.1431 13.9821 18.745ZM15.6784 13.4166C15.755 12.7841 15.8125 12.1516 15.8125 11.5C15.8125 10.8483 15.755 10.2158 15.6784 9.58329H18.9175C19.0709 10.1966 19.1667 10.8387 19.1667 11.5C19.1667 12.1612 19.0709 12.8033 18.9175 13.4166H15.6784Z" fill="#010851"/>
</g>
</svg>
